<svg xmlns="http://www.w3.org/2000/svg" width="22" height="22" viewBox="0 0 22 22">
  <g fill="none" fill-rule="evenodd" transform="translate(-1 -1)">
    <rect width="24" height="24"/>
    <rect width="21" height="21" x="1.5" y="1.5" fill="#D8D8D8" stroke="#D8D8D8" rx="4"/>
    <path fill="#FFF" d="M9.80559681,16.6680352 C9.78015107,16.7045161 9.74981283,16.7387646 9.71460117,16.7699393 L9.68889207,16.7927009 L9.5878597,16.9006251 C9.46976095,17.0267798 9.31185988,17.086686 9.15591197,17.0794086 C8.98989578,17.0828999 8.82285429,17.0164503 8.70284105,16.8828125 L5.15872203,12.9363445 C4.94241167,12.6954773 4.94722901,12.3140561 5.1729728,12.0808094 C5.39715363,11.8491775 5.76374296,11.8524016 5.98454454,12.0805419 L9.13831295,15.3391306 L18.0085109,6.17411809 C18.2331384,5.94202477 18.5965893,5.94125793 18.8238151,6.17603595 C19.0494678,6.40918848 19.0537914,6.7889832 18.832441,7.0254328 L9.80559681,16.6680352 Z"/>
  </g>
</svg>
