<?xml version="1.0" encoding="UTF-8"?>
<svg width="24px" height="24px" viewBox="0 0 24 24" version="1.1" xmlns="http://www.w3.org/2000/svg" xmlns:xlink="http://www.w3.org/1999/xlink">
    <!-- Generator: Sketch 51 (57462) - http://www.bohemiancoding.com/sketch -->
    <title>activate</title>
    <desc>Created with Sketch.</desc>
    <defs>
        <path d="M11.825295,4.65362575 C16.14551,4.65362575 19.6505901,8.15870583 19.6505901,12.4789208 C19.6505901,16.7991358 16.14551,20.3042158 11.825295,20.3042158 C7.50508007,20.3042158 4,16.7991358 4,12.4789208 C4,8.15870583 7.50508007,4.65362575 11.825295,4.65362575 Z M15.7379426,13.039326 C15.9417263,12.927245 16.0639965,12.7132721 16.0639965,12.4789208 C16.0639965,12.2445695 15.9417263,12.0305966 15.7379426,11.9185156 L10.1950252,8.65797595 C10.0014307,8.53570572 9.74670105,8.53570572 9.54291732,8.64778677 C9.3391336,8.770057 9.21686336,8.98402991 9.21686336,9.2183812 L9.21686336,15.7394604 C9.21686336,15.9738117 9.3391336,16.1877846 9.54291732,16.3100548 C9.64480918,16.3610008 9.75689023,16.3915683 9.86897128,16.3915683 C9.98105233,16.3915683 10.0931334,16.3610008 10.1950252,16.2998656 L15.7379426,13.039326 Z" id="path-1"></path>
    </defs>
    <g id="activate" stroke="none" stroke-width="1" fill="none" fill-rule="evenodd">
        <g>
            <use fill="#000000" xlink:href="#path-1"></use>
            <use fill="#248700" xlink:href="#path-1"></use>
        </g>
    </g>
</svg>