<svg xmlns="http://www.w3.org/2000/svg" width="28" height="28" viewBox="0 0 28 28">
  <g fill="none" fill-rule="evenodd" transform="translate(-2 -2)">
    <rect width="32" height="32"/>
    <path fill="#FFF" d="M23.9130435,11.7391304 L23.9130435,25.1304348 C23.9130435,25.8024348 24.4572174,26.3478261 25.1304348,26.3478261 C25.8036522,26.3478261 26.3478261,25.8024348 26.3478261,25.1304348 L26.3478261,11.7391304 C26.3478261,11.0671304 25.8036522,10.5217391 25.1304348,10.5217391 C24.4572174,10.5217391 23.9130435,11.0671304 23.9130435,11.7391304 M15.3913043,16.6086957 L15.3913043,25.1304348 C15.3913043,25.8024348 15.9354783,26.3478261 16.6086957,26.3478261 C17.281913,26.3478261 17.826087,25.8024348 17.826087,25.1304348 L17.826087,16.6086957 C17.826087,15.9366957 17.281913,15.3913043 16.6086957,15.3913043 C15.9354783,15.3913043 15.3913043,15.9366957 15.3913043,16.6086957 M8.08695652,23.9130435 L8.08695652,25.1304348 C8.08695652,25.8024348 8.63113043,26.3478261 9.30434783,26.3478261 C9.97756522,26.3478261 10.5217391,25.8024348 10.5217391,25.1304348 L10.5217391,23.9130435 C10.5217391,23.2410435 9.97756522,22.6956522 9.30434783,22.6956522 C8.63113043,22.6956522 8.08695652,23.2410435 8.08695652,23.9130435 M9.30434783,20.2608696 C10.6483478,20.2608696 11.7391304,19.170087 11.7391304,17.826087 C11.7391304,17.4888696 11.6697391,17.1674783 11.5467826,16.8753043 L15.657913,12.7629565 C15.950087,12.8871304 16.2714783,12.9565217 16.6086957,12.9565217 C17.9526957,12.9565217 19.0434783,11.8657391 19.0434783,10.5217391 C19.0434783,10.4827826 19.0337391,10.4462609 19.0313043,10.4085217 L23.4869565,7.43930435 C23.9215652,7.8373913 24.4949565,8.08695652 25.1304348,8.08695652 C26.4744348,8.08695652 27.5652174,6.99617391 27.5652174,5.65217391 C27.5652174,4.30817391 26.4744348,3.2173913 25.1304348,3.2173913 C23.7864348,3.2173913 22.6956522,4.30817391 22.6956522,5.65217391 C22.6956522,5.69113043 22.7053913,5.72643478 22.7078261,5.76417391 L18.2521739,8.7346087 C17.8175652,8.33652174 17.2429565,8.08695652 16.6086957,8.08695652 C15.2646957,8.08695652 14.173913,9.17773913 14.173913,10.5217391 C14.173913,10.8589565 14.2433043,11.1803478 14.3662609,11.4725217 L10.2551304,15.5836522 C9.96295652,15.4606957 9.64156522,15.3913043 9.30434783,15.3913043 C7.96034783,15.3913043 6.86956522,16.482087 6.86956522,17.826087 C6.86956522,19.170087 7.96034783,20.2608696 9.30434783,20.2608696 M30,28.7826087 C30,29.4546087 29.4558261,30 28.7826087,30 L3.2173913,30 C2.54417391,30 2,29.4546087 2,28.7826087 L2,3.2173913 C2,2.5453913 2.54417391,2 3.2173913,2 C3.8906087,2 4.43478261,2.5453913 4.43478261,3.2173913 L4.43478261,27.5652174 L28.7826087,27.5652174 C29.4558261,27.5652174 30,28.1106087 30,28.7826087"/>
  </g>
</svg>
