<svg xmlns="http://www.w3.org/2000/svg" width="20" height="28" viewBox="0 0 20 28">
  <g fill="none" fill-rule="evenodd" transform="translate(-6 -2)">
    <rect width="32" height="32"/>
    <path fill="#FFF" d="M10.9783506,12.831926 L10.9783506,7.5044766 C10.9783506,6.06330886 12.1683009,4.89065218 13.6292299,4.89065218 C15.0901589,4.89065218 16.2801092,6.05142784 16.2801092,7.47952646 L16.2801092,12.1665889 C16.4650817,12.1024314 16.663014,12.0667883 16.865659,12.0442144 C18.1204085,11.0058132 18.9309885,9.44821148 18.9309885,7.68388 C18.9309885,4.5449145 16.4073514,2 13.2958082,2 C10.1830868,2 7.66062788,4.5449145 7.66062788,7.68388 C7.66062788,9.98404549 9.02965977,11.9396614 10.9783506,12.831926 M26,17.0092927 L26,23.4369245 C26,28.0717104 20.884392,30 20.884392,30 L14.2277395,30 C10.7639239,30 8.2449995,21.0939874 6.41294735,18.492044 C5.86981164,17.7221539 5.8262194,16.6766241 6.50013183,15.9970297 C7.17286609,15.3174354 8.36281635,15.2734756 9.0284816,15.9423771 L11.861977,18.7082785 L11.861977,7.5044766 C11.861977,6.5587474 12.6760915,5.78172869 13.6292299,5.78172869 C14.5823683,5.78172869 15.3964828,6.53379726 15.3964828,7.47952646 L15.3964828,14.6081385 C15.3964828,13.6624093 16.2105973,12.9103407 17.1637356,12.9103407 C18.116874,12.9103407 18.9309885,13.6873594 18.9309885,14.6330886 L18.9309885,15.7962405 C18.9309885,14.8505113 19.745103,14.0984427 20.6982414,14.0984427 C21.6513798,14.0984427 22.4654943,14.8754615 22.4654943,15.8211906 L22.4654943,16.9843425 C22.4654943,16.0386133 23.2796087,15.2865447 24.2327471,15.2865447 C25.1858855,15.2865447 26,16.0635635 26,17.0092927"/>
  </g>
</svg>
