<svg xmlns="http://www.w3.org/2000/svg" width="30" height="25" viewBox="0 0 30 25">
  <g fill="none" fill-rule="evenodd" transform="translate(-1 -4)">
    <rect width="32" height="32"/>
    <path fill="#FFF" d="M18.7317379,9.59277108 C18.7317379,9.0939759 18.3242511,8.68915663 17.8221692,8.68915663 L7.55495816,8.68915663 C7.05287626,8.68915663 6.6453895,9.0939759 6.6453895,9.59277108 C6.6453895,10.0915663 7.05287626,10.4963855 7.55495816,10.4963855 L17.8221692,10.4963855 C18.3242511,10.4963855 18.7317379,10.0915663 18.7317379,9.59277108 M18.7317379,12.6807229 C18.7317379,12.1819277 18.3242511,11.7771084 17.8221692,11.7771084 L7.55495816,11.7771084 C7.05287626,11.7771084 6.6453895,12.1819277 6.6453895,12.6807229 C6.6453895,13.1807229 7.05287626,13.5843373 7.55495816,13.5843373 L17.8221692,13.5843373 C18.3242511,13.5843373 18.7317379,13.1807229 18.7317379,12.6807229 M13.5993451,15.9686747 C13.5993451,15.4686747 13.1918583,15.0650602 12.6897764,15.0650602 L7.55495816,15.0650602 C7.05287626,15.0650602 6.6453895,15.4686747 6.6453895,15.9686747 C6.6453895,16.4674699 7.05287626,16.8722892 7.55495816,16.8722892 L12.6897764,16.8722892 C13.1918583,16.8722892 13.5993451,16.4674699 13.5993451,15.9686747 M24.3771274,12.453012 C24.3771274,17.2421687 20.8746817,20.9036145 16.5524114,20.9036145 L14.0577677,20.9036145 L7.96487044,27.0072289 C7.84359462,27.126506 7.63863848,27.0421687 7.63863848,26.8722892 L7.63863848,21.1253012 C3.46917573,20.4048193 1,16.9 1,12.6301205 C1,7.84096386 4.31325545,4 8.63431297,4 L16.5524114,4 C20.8746817,4 24.3771274,7.6626506 24.3771274,12.453012 M25.0987185,29 C24.8622307,29 24.6293811,28.9084337 24.4559567,28.7361446 L21.4204228,25.7204819 L19.8123055,25.7204819 C18.1095929,25.7204819 16.4481142,24.8409639 15.2511218,23.3072289 C14.9430812,22.913253 15.0158467,22.3457831 15.4124186,22.039759 C15.8114161,21.7337349 16.3826252,21.8072289 16.6882403,22.2 C17.5383838,23.2891566 18.6771638,23.913253 19.8123055,23.913253 L21.7963779,23.913253 C22.0389295,23.913253 22.2693536,24.0084337 22.4403525,24.1783133 L24.1891499,25.9156627 L24.1891499,24.5313253 C24.1891499,24.0457831 24.5760197,23.646988 25.0647613,23.6277108 C27.0112382,23.5554217 29.1808627,21.5783133 29.1808627,18.8554217 C29.1808627,16.6927711 27.8832114,14.8156627 26.0252658,14.2939759 C25.5413753,14.1578313 25.2612281,13.6590361 25.397057,13.1783133 C25.5340987,12.6987952 26.0349679,12.4180723 26.5200711,12.5542169 C29.1578203,13.2963855 31,15.8879518 31,18.8554217 C31,21.9819277 28.7915673,24.7493976 26.0082872,25.3277108 L26.0082872,28.0963855 C26.0082872,28.4626506 25.7863524,28.7915663 25.4467801,28.9313253 C25.3339936,28.9783133 25.2163561,29 25.0987185,29"/>
  </g>
</svg>
