<svg xmlns="http://www.w3.org/2000/svg" width="26" height="26" viewBox="0 0 26 26">
  <g fill="none" fill-rule="evenodd" transform="translate(-3 -3)">
    <rect width="32" height="32"/>
    <path fill="#FFF" d="M7.711,8.497 L9.835,8.497 C10.232,7.513 10.704,6.631 11.241,5.878 C9.897,6.513 8.697,7.408 7.711,8.497 Z M11.821,8.497 L15.093,8.497 L15.093,4.963 C13.818,5.384 12.673,6.673 11.821,8.497 Z M16.907,8.497 L20.179,8.497 C19.327,6.673 18.182,5.384 16.907,4.963 L16.907,8.497 Z M22.165,8.497 L24.289,8.497 C23.303,7.408 22.104,6.513 20.759,5.878 C21.296,6.631 21.769,7.513 22.165,8.497 Z M4.851,15.094 L8.515,15.094 C8.58,13.38 8.828,11.767 9.229,10.311 L6.372,10.311 C5.527,11.734 4.99,13.359 4.851,15.094 Z M10.331,15.094 L15.093,15.094 L15.093,10.311 L11.13,10.311 C10.689,11.741 10.404,13.369 10.331,15.094 Z M16.907,15.094 L21.669,15.094 C21.596,13.369 21.312,11.741 20.87,10.311 L16.907,10.311 L16.907,15.094 Z M23.485,15.094 L27.149,15.094 C27.01,13.359 26.473,11.734 25.628,10.311 L22.772,10.311 C23.172,11.767 23.42,13.38 23.485,15.094 Z M6.372,21.69 L9.229,21.69 C8.828,20.234 8.58,18.621 8.515,16.907 L4.851,16.907 C4.99,18.642 5.527,20.267 6.372,21.69 Z M11.13,21.69 L15.093,21.69 L15.093,16.907 L10.331,16.907 C10.404,18.632 10.689,20.26 11.13,21.69 Z M16.907,21.69 L20.87,21.69 C21.312,20.26 21.596,18.632 21.669,16.907 L16.907,16.907 L16.907,21.69 Z M22.772,21.69 L25.628,21.69 C26.473,20.267 27.01,18.642 27.149,16.907 L23.485,16.907 C23.42,18.621 23.172,20.234 22.772,21.69 Z M7.711,23.504 C8.697,24.593 9.897,25.488 11.241,26.122 C10.704,25.37 10.232,24.488 9.835,23.504 L7.711,23.504 Z M22.165,23.504 C21.769,24.488 21.296,25.37 20.759,26.122 C22.104,25.488 23.303,24.593 24.289,23.504 L22.165,23.504 Z M11.821,23.504 C12.673,25.328 13.818,26.617 15.093,27.038 L15.093,23.504 L11.821,23.504 Z M16.907,23.504 L16.907,27.038 C18.182,26.617 19.327,25.328 20.179,23.504 L16.907,23.504 Z M16,29 C8.832,29 3,23.169 3,16 C3,8.832 8.832,3 16,3 C23.168,3 29,8.832 29,16 C29,23.169 23.168,29 16,29 Z"/>
  </g>
</svg>
