<?xml version="1.0" encoding="UTF-8"?>
<svg width="24px" height="24px" viewBox="0 0 24 24" version="1.1" xmlns="http://www.w3.org/2000/svg" xmlns:xlink="http://www.w3.org/1999/xlink">
    <!-- Generator: Sketch 51 (57462) - http://www.bohemiancoding.com/sketch -->
    <title>deactivate</title>
    <desc>Created with Sketch.</desc>
    <defs>
        <path d="M17.3682124,12.4483532 C17.3682124,11.3377319 17.0421584,10.3086241 16.4817532,9.44254329 L8.79910673,17.1150005 C9.67537674,17.685595 10.7146737,18.0218381 11.825295,18.0218381 C14.8820509,18.0218381 17.3682124,15.5254875 17.3682124,12.4483532 Z M7.1892153,15.4949199 L14.8820509,7.81227349 C14.0057809,7.22130069 12.9562947,6.88505754 11.825295,6.88505754 C8.76853917,6.88505754 6.28237772,9.38140818 6.28237772,12.4483532 C6.28237772,13.5793529 6.61862087,14.6186499 7.1892153,15.4949199 Z M19.6505901,12.4483532 C19.6505901,16.7889466 16.14551,20.3042158 11.825295,20.3042158 C7.50508007,20.3042158 4,16.7889466 4,12.4483532 C4,8.11794908 7.50508007,4.60267982 11.825295,4.60267982 C16.14551,4.60267982 19.6505901,8.11794908 19.6505901,12.4483532 Z" id="path-1"></path>
    </defs>
    <g id="deactivate" stroke="none" stroke-width="1" fill="none" fill-rule="evenodd">
        <g fill="#4b286d">
            <use xlink:href="#path-1"></use>
            <use xlink:href="#path-1"></use>
        </g>
    </g>
</svg>