<svg xmlns="http://www.w3.org/2000/svg" width="18" height="13" viewBox="0 0 18 13">
  <g fill="none" fill-rule="evenodd" transform="translate(-3 -6)">
    <rect width="24" height="24"/>
    <path stroke="#54595F" stroke-linecap="round" stroke-linejoin="round" stroke-width="1.5" d="M12.0006667,10.3 C10.8225137,10.3 9.86729779,11.28505 9.86729779,12.5 C9.86729779,13.71495 10.8225137,14.7 12.0006667,14.7 C13.1788196,14.7 14.1340356,13.71495 14.1340356,12.5 C14.1340356,11.28505 13.1788196,10.3 12.0006667,10.3 Z M12.0006667,18 C8.23047051,18 5.0698845,14.07245 4.02240037,12.56985 C3.99253321,12.52695 3.99253321,12.47305 4.02240037,12.43015 C5.0698845,10.92755 8.23047051,7 12.0006667,7 C15.7681961,7 18.9266488,10.9215 19.9767996,12.42685 C20.0077335,12.4714 20.0077335,12.5286 19.9767996,12.57315 C18.9266488,14.0785 15.7681961,18 12.0006667,18 Z"/>
  </g>
</svg>
