<svg xmlns="http://www.w3.org/2000/svg" width="16" height="14" viewBox="0 0 16 14">
  <g fill="none" fill-rule="evenodd" transform="translate(-4 -5)">
    <rect width="24" height="24"/>
    <path fill="#54595F" d="M12,14.5685323 C10.5593478,14.5685323 9.39130435,13.4184037 9.39130435,11.9998476 C9.39130435,10.5812914 10.5593478,9.4311628 12,9.4311628 C13.4406522,9.4311628 14.6086957,10.5812914 14.6086957,11.9998476 C14.6086957,13.4184037 13.4406522,14.5685323 12,14.5685323 M19.4393478,11.0751211 C19.361087,10.4766175 18.7467391,10.1003052 18.1734783,10.3122217 L18.1663043,10.3141482 C17.6973913,10.4881766 17.1756522,10.2480046 16.9708696,9.7991269 C16.8202174,9.46712439 16.6356522,9.15181834 16.4223913,8.85963044 C16.1263043,8.45442042 16.1758696,7.90086886 16.5671739,7.58299412 L16.5678261,7.58299412 C17.0406522,7.19833357 17.0158696,6.48488138 16.5273913,6.12012814 C16.0330435,5.75087971 15.4904348,5.44135319 14.9113043,5.20118117 C14.3452174,4.96550434 13.7021739,5.29879119 13.601087,5.8960104 C13.5176087,6.39112439 13.0513043,6.71028347 12.5445652,6.65762543 C12.3658696,6.63836029 12.183913,6.6293699 12,6.6293699 C11.816087,6.6293699 11.6341304,6.63836029 11.4554348,6.65762543 C10.9493478,6.71028347 10.4823913,6.39112439 10.398913,5.8960104 C10.2984783,5.29879119 9.65478261,4.96550434 9.08869565,5.20118117 C8.50891304,5.44135319 7.96630435,5.75087971 7.47326087,6.12012814 C6.98413043,6.48488138 6.95869565,7.19833357 7.43217391,7.58299412 L7.43282609,7.58299412 C7.82478261,7.90086886 7.87369565,8.45442042 7.5776087,8.85963044 C7.365,9.15181834 7.17978261,9.46712439 7.02913043,9.7991269 C6.82434783,10.2480046 6.3026087,10.4881766 5.83369565,10.3141482 L5.82652174,10.3122217 C5.25326087,10.1003052 4.63891304,10.4766175 4.56065217,11.0751211 C4.52086957,11.3782259 4.5,11.686468 4.5,11.9998476 C4.5,12.3138693 4.52086957,12.6227536 4.56065217,12.9245741 C4.63891304,13.5230776 5.25326087,13.89939 5.82652174,13.6874735 L5.83369565,13.6855469 C6.3026087,13.5121607 6.82434783,13.7516906 7.02913043,14.2012104 C7.17978261,14.5325707 7.365,14.8478768 7.5776087,15.1400647 C7.87369565,15.5452747 7.82478261,16.1001106 7.43282609,16.416701 L7.43217391,16.4173432 C6.95869565,16.8013616 6.98413043,17.5148138 7.47326087,17.8802092 C7.96630435,18.2488154 8.50891304,18.5583419 9.08869565,18.7991561 C9.65478261,19.0341908 10.2984783,18.700904 10.398913,18.1036847 C10.4823913,17.6092129 10.9493478,17.290696 11.4554348,17.3420697 C11.6341304,17.3613348 11.816087,17.3709674 12,17.3709674 C12.183913,17.3709674 12.3658696,17.3613348 12.5445652,17.3420697 C13.0513043,17.290696 13.5176087,17.6092129 13.601087,18.1036847 C13.7021739,18.700904 14.3452174,19.0341908 14.9113043,18.7991561 C15.4904348,18.5583419 16.0330435,18.2488154 16.5273913,17.8802092 C17.0158696,17.5148138 17.0406522,16.8013616 16.5678261,16.4173432 L16.5671739,16.416701 C16.1758696,16.1001106 16.1263043,15.5452747 16.4223913,15.1400647 C16.6356522,14.8478768 16.8202174,14.5325707 16.9708696,14.2012104 C17.1756522,13.7516906 17.6973913,13.5121607 18.1663043,13.6855469 L18.1734783,13.6874735 C18.7467391,13.89939 19.361087,13.5230776 19.4393478,12.9245741 C19.4791304,12.6227536 19.5,12.3138693 19.5,11.9998476 C19.5,11.686468 19.4791304,11.3782259 19.4393478,11.0751211"/>
  </g>
</svg>
