<svg xmlns="http://www.w3.org/2000/svg" width="16" height="16" viewBox="0 0 16 16">
  <g fill="none" fill-rule="evenodd" transform="translate(-4 -4)">
    <rect width="24" height="24"/>
    <path stroke="#C12335" stroke-width="1.25" d="M4.625,12 C4.625,16.070822 7.92917797,19.375 12,19.375 C16.070822,19.375 19.375,16.070822 19.375,12 C19.375,7.92917797 16.070822,4.625 12,4.625 C7.92917797,4.625 4.625,7.92917797 4.625,12 Z"/>
    <path fill="#C12335" d="M12.0003931,11 L16.5023403,11.2575168 C16.7787221,11.2733262 17,11.7790381 17,12.3872517 L17,11.7703386 C17,12.3699056 16.7763848,12.892672 16.5005416,12.9186575 C16.5005416,12.9186575 13.6718319,13.2 12.0003931,13.2 C10.5757688,13.2 7.49968369,12.9158953 7.49968369,12.9158953 C7.21763156,12.8911658 7,12.3785522 7,11.7703386 L7,12.3872517 C7,11.7876846 7.22284485,11.2732386 7.49773791,11.2575168 L12.0003931,11 Z"/>
  </g>
</svg>
