<?xml version="1.0" encoding="UTF-8"?>
<svg width="17px" height="14px" viewBox="0 0 17 14" version="1.1" xmlns="http://www.w3.org/2000/svg" xmlns:xlink="http://www.w3.org/1999/xlink">
    <!-- Generator: sketchtool 51.3 (57544) - http://www.bohemiancoding.com/sketch -->
    <title>8AEC7F00-3790-429A-9E0E-8597B55746E9</title>
    <desc>Created with sketchtool.</desc>
    <defs></defs>
    <g id="Page-1" stroke="none" stroke-width="1" fill="none" fill-rule="evenodd">
        <g id="Assets" transform="translate(-20.000000, -221.000000)">
            <g id="icon-folder-edit--Shark" transform="translate(16.000000, 216.000000)">
                <rect id="bounds" x="0" y="0" width="24" height="24"></rect>
                <path d="M6.5,6 L10.6550488,6 C10.8739925,6 11.0820046,6.09567205 11.2244913,6.26190647 L12.2755087,7.48809353 C12.4179954,7.65432795 12.6260075,7.75 12.8449512,7.75 L18.5,7.75 C19.3284271,7.75 20,8.42157288 20,9.25 L20,16.5 C20,17.3284271 19.3284271,18 18.5,18 L6.5,18 C5.67157288,18 5,17.3284271 5,16.5 L5,7.5 C5,6.67157288 5.67157288,6 6.5,6 Z" id="Path" stroke="#2A2C2E" stroke-width="1.5" stroke-linecap="round" stroke-linejoin="round"></path>
            </g>
        </g>
    </g>
</svg>