<svg xmlns="http://www.w3.org/2000/svg" width="19" height="17" viewBox="0 0 19 17">
  <g fill="none" fill-rule="evenodd" transform="translate(-3 -4)">
    <rect width="24" height="24"/>
    <path stroke="#54595F" stroke-linecap="round" stroke-linejoin="round" stroke-width="1.5" d="M19.2308174 13.1214545L17.8649043 13.1214545M18.4826696 15.3202909L17.5018435 15.3202909M8.80434783 18.228C12.7749565 19.5610909 17.5016957 19.4796364 17.5016957 19.4796364 19.3155217 19.4796364 18.9304348 17.5181818 17.6192174 17.5181818L17.095913 17.5181818"/>
    <path stroke="#54595F" stroke-linecap="round" stroke-linejoin="round" stroke-width="1.5" d="M8.80434783,11.5880727 C8.80434783,11.5880727 12.5473043,8.6928 12.279,5.66370909 C12.0757391,3.36625455 16.41,5.12334545 13.9974783,10.9233455 L19.3465652,10.9233455 C20.8388696,10.9233455 20.8336957,13.1211636 19.3465652,13.1211636 L19.2305217,13.1211636 C20.7353913,13.1211636 20.6954783,15.3204364 19.2305217,15.3204364 L18.4825217,15.3204364 C19.974087,15.3204364 19.9703913,17.5182545 18.4825217,17.5182545 L17.6192174,17.5182545"/>
    <polygon stroke="#54595F" stroke-linecap="round" stroke-linejoin="round" stroke-width="1.5" points="4.37 19.636 8.804 19.636 8.804 10.909 4.37 10.909"/>
  </g>
</svg>
