<svg xmlns="http://www.w3.org/2000/svg" width="24" height="22" viewBox="0 0 24 22">
  <g fill="none" fill-rule="evenodd" transform="translate(-4 -5)">
    <rect width="32" height="32"/>
    <path fill="#FFF" d="M16,20.1096517 C13.6949565,20.1096517 11.826087,18.269446 11.826087,15.9997561 C11.826087,13.7300663 13.6949565,11.8898605 16,11.8898605 C18.3050435,11.8898605 20.173913,13.7300663 20.173913,15.9997561 C20.173913,18.269446 18.3050435,20.1096517 16,20.1096517 M27.9029565,14.5201937 C27.7777391,13.562588 26.7947826,12.9604883 25.8775652,13.2995547 L25.866087,13.3026371 C25.1158261,13.5810825 24.2810435,13.1968073 23.9533913,12.478603 C23.7123478,11.947399 23.4170435,11.4429093 23.0758261,10.9754087 C22.602087,10.3270727 22.6813913,9.44139017 23.3074783,8.93279059 L23.3085217,8.93279059 C24.0650435,8.31733372 24.0253913,7.17581021 23.2438261,6.59220503 C22.4528696,6.00140753 21.5846957,5.50616511 20.658087,5.12188987 C19.7523478,4.74480694 18.7234783,5.2780659 18.5617391,6.23361663 C18.4281739,7.02579902 17.682087,7.53645355 16.8713043,7.45220069 C16.5853913,7.42137647 16.2942609,7.40699184 16,7.40699184 C15.7057391,7.40699184 15.4146087,7.42137647 15.1286957,7.45220069 C14.3189565,7.53645355 13.5718261,7.02579902 13.4382609,6.23361663 C13.2775652,5.2780659 12.2476522,4.74480694 11.341913,5.12188987 C10.4142609,5.50616511 9.54608696,6.00140753 8.75721739,6.59220503 C7.9746087,7.17581021 7.93391304,8.31733372 8.69147826,8.93279059 L8.69252174,8.93279059 C9.31965217,9.44139017 9.39791304,10.3270727 8.92417391,10.9754087 C8.584,11.4429093 8.28765217,11.947399 8.0466087,12.478603 C7.71895652,13.1968073 6.88417391,13.5810825 6.13391304,13.3026371 L6.12243478,13.2995547 C5.20521739,12.9604883 4.22226087,13.562588 4.09704348,14.5201937 C4.0333913,15.0051614 4,15.4983488 4,15.9997561 C4,16.5021909 4.0333913,16.9964058 4.09704348,17.4793185 C4.22226087,18.4369242 5.20521739,19.0390239 6.12243478,18.6999575 L6.13391304,18.6968751 C6.88417391,18.4194572 7.71895652,18.8027049 8.0466087,19.5219367 C8.28765217,20.0521132 8.584,20.5566029 8.92417391,21.0241035 C9.39791304,21.6724395 9.31965217,22.560177 8.69252174,23.0667216 L8.69147826,23.0677491 C7.93391304,23.6821785 7.9746087,24.823702 8.75721739,25.4083347 C9.54608696,25.9981047 10.4142609,26.4933471 11.341913,26.8786498 C12.2476522,27.2547053 13.2775652,26.7214463 13.4382609,25.7658956 C13.5718261,24.9747407 14.3189565,24.4651136 15.1286957,24.5473115 C15.4146087,24.5781358 15.7057391,24.5935479 16,24.5935479 C16.2942609,24.5935479 16.5853913,24.5781358 16.8713043,24.5473115 C17.682087,24.4651136 18.4281739,24.9747407 18.5617391,25.7658956 C18.7234783,26.7214463 19.7523478,27.2547053 20.658087,26.8786498 C21.5846957,26.4933471 22.4528696,25.9981047 23.2438261,25.4083347 C24.0253913,24.823702 24.0650435,23.6821785 23.3085217,23.0677491 L23.3074783,23.0667216 C22.6813913,22.560177 22.602087,21.6724395 23.0758261,21.0241035 C23.4170435,20.5566029 23.7123478,20.0521132 23.9533913,19.5219367 C24.2810435,18.8027049 25.1158261,18.4194572 25.866087,18.6968751 L25.8775652,18.6999575 C26.7947826,19.0390239 27.7777391,18.4369242 27.9029565,17.4793185 C27.9666087,16.9964058 28,16.5021909 28,15.9997561 C28,15.4983488 27.9666087,15.0051614 27.9029565,14.5201937"/>
  </g>
</svg>
