<svg xmlns="http://www.w3.org/2000/svg" width="15" height="15" viewBox="0 0 15 15">
  <g fill="none" fill-rule="evenodd" transform="translate(-5 -5)">
    <rect width="24" height="24"/>
    <path stroke="#54595F" stroke-linecap="round" stroke-linejoin="round" stroke-width="1.25" d="M15.0882995,7.43178251 C14.9092627,8.01274301 14.3014649,8.3368082 13.7295903,8.15533169 C13.1588745,7.97326598 12.8402007,7.35518529 13.0192374,6.77363558 C13.1971154,6.19267508 13.8054926,5.8686099 14.3767878,6.05067561 C14.9486624,6.23215211 15.2673362,6.85082201 15.0882995,7.43178251 Z M10.2697199,17.4411545 C9.90932886,18.6119136 8.68446268,19.2641684 7.53260177,18.8982694 C6.38132027,18.5323703 5.73991683,17.2861924 6.10030792,16.1154332 C6.46011961,14.9446741 7.68498578,14.2918301 8.83626729,14.6583183 C9.9881282,15.0242174 10.6295316,16.2703953 10.2697199,17.4411545 Z M18.899696,17.4411545 C18.5398843,18.6119136 17.3150181,19.2641684 16.1631572,18.8982694 C15.0118757,18.5323703 14.3704723,17.2861924 14.7302839,16.1154332 C15.090675,14.9446741 16.3155412,14.2918301 17.4668227,14.6583183 C18.6186836,15.0242174 19.2600871,16.2703953 18.899696,17.4411545 Z M12.7944276,17.4518192 C12.7944276,17.4518192 12.8703299,14.5806016 12.7944276,14.4621705 L10.4959204,12.6338536 C10.2044787,12.3604605 10.1587056,11.9097153 10.3893095,11.5815256 L11.7178895,9.68603887 C12.1773592,8.83109599 13.1443893,8.98959332 13.4410457,9.67955757 L14.6299886,12.0929594 L16.2482721,12.0929594"/>
  </g>
</svg>
