<svg xmlns="http://www.w3.org/2000/svg" width="12" height="12" viewBox="0 0 12 12">
  <g fill="none" fill-rule="evenodd" transform="translate(-6 -6)">
    <rect width="24" height="24"/>
    <path fill="#FFF" fill-rule="nonzero" stroke="#FFF" stroke-width=".5" d="M12.0221863,11.0636802 L16.1125152,7.17865366 C16.3430092,6.95972864 16.6974275,6.9682604 16.9157965,7.18662945 L16.8185531,7.089386 C17.0389356,7.3097685 17.0483644,7.66511298 16.84411,7.88756728 C16.84411,7.88756728 14.5973129,10.3443425 12.9680758,12.0119425 C14.4575993,13.5440849 16.8172587,16.1048665 16.8172587,16.1048665 C17.0350242,16.3403485 17.0246904,16.6924198 16.8095841,16.9075261 L16.9053746,16.8117356 C16.6882849,17.0288253 16.3330571,17.0279267 16.1075212,16.8141584 L12.0296702,12.9490753 C10.5004848,14.4366493 7.90809546,16.8224688 7.90809546,16.8224688 C7.67247918,17.0401 7.31765943,17.0270177 7.09929038,16.8086487 L7.19653383,16.9058921 C6.97615133,16.6855096 6.9746219,16.3278538 7.18862057,16.1025483 L11.0820882,12.0033654 L7.18362653,7.8902638 C6.96493728,7.65953404 6.97100554,7.30757926 7.18611189,7.09247291 L7.09032137,7.18826343 C7.30741109,6.97117371 7.66003049,6.96446999 7.88234882,7.16886027 C7.88234882,7.16886027 10.3546136,9.43284714 12.0221863,11.0636802 Z"/>
  </g>
</svg>
