<svg xmlns="http://www.w3.org/2000/svg" width="16" height="16" viewBox="0 0 16 16">
  <g fill="none" fill-rule="evenodd" transform="translate(-4 -4)">
    <rect width="24" height="24"/>
    <path stroke="#54595F" stroke-linecap="round" stroke-linejoin="round" stroke-width="1.5" d="M9.99162056,7.93232026 L5.9818543,7.93232026 C5.40828979,7.93232026 5,8.12907901 5,8.70521323 L5,18.0776934 C5,18.6212394 5.37707123,19 5.91819292,19 L15.3125308,19 C15.8530403,19 16.0183151,18.6212394 16.0183151,18.0776934 L16.0183151,14.1913723 M8.8398828,12.6268611 L11.4071502,15.2050156 L8.8398828,12.6268611 Z M11.4071502,15.2050156 C11.3202279,15.2954016 8.02636387,16.6106109 7.91067156,16.6573411 C7.76253643,16.7175985 7.59358894,16.681936 7.48218153,16.5694146 C7.36954986,16.4568931 7.33465853,16.2878036 7.39525927,16.1396197 C7.44422956,16.0178752 8.7480635,12.7197066 8.8398828,12.6268611 C8.84477982,12.6219421 16.3164217,5.11682551 16.3164217,5.11682551 C16.3935499,5.03873688 16.4951632,5 16.5961645,5 C16.6983899,5 16.7993912,5.03935175 16.8771315,5.11682551 L18.8843012,7.13237296 C18.9571445,7.20738724 18.9999935,7.3082261 18.9999935,7.41398393 C19.0006057,7.51974175 18.9577567,7.62058061 18.8843012,7.69498002 C18.8298218,7.74970354 11.4616296,15.1502921 11.4071502,15.2050156 Z"/>
  </g>
</svg>
