<svg xmlns="http://www.w3.org/2000/svg" width="16" height="16" viewBox="0 0 16 16">
  <g fill="none" fill-rule="evenodd" transform="translate(-5 -5)">
    <rect width="24" height="24"/>
    <path stroke="#54595F" stroke-linecap="round" stroke-linejoin="round" stroke-width="1.5" d="M8.24244177,8.24256693 C7.77907792,8.70722752 7.77907792,9.46046678 8.24244177,9.92512737 C8.70580562,10.389788 9.4569428,10.389788 9.92030665,9.92512737 C10.3836705,9.46046678 10.3836705,8.70722752 9.92030665,8.24256693 C9.4569428,7.77790635 8.70580562,7.77790635 8.24244177,8.24256693 Z M19.8478771,14.0068038 L14.0802166,19.8462423 C13.9436462,19.985029 13.714403,20.0522825 13.4955245,19.9520137 C13.3485894,19.8865944 6.29753299,12.8549346 6.1829114,12.7412151 C6.08475143,12.6427804 6.02866002,12.5094962 6.02805033,12.3713208 L6.00000462,6.55878371 C5.99878524,6.2610341 6.23900282,6.03542915 6.52067926,6.03114938 L11.9371588,6.00547077 C12.2334678,6.00424798 12.4883179,5.95839332 12.6870766,6.15526267 C15.8379507,9.28499627 14.7996499,8.25357205 19.8448286,13.2645696 C20.0502939,13.4681643 20.052123,13.8007635 19.8478771,14.0068038 Z"/>
  </g>
</svg>
