<svg xmlns="http://www.w3.org/2000/svg" width="22" height="22" viewBox="0 0 22 22">
  <g fill="none" fill-rule="evenodd" transform="translate(-1 -1)">
    <rect width="24" height="24"/>
    <path fill="#4B286D" fill-rule="nonzero" stroke="#4B286D" stroke-linecap="round" stroke-linejoin="round" stroke-width=".75" d="M2.66666667,9 C2.66666667,12.492 5.508,15.3333333 9,15.3333333 C12.492,15.3333333 15.3333333,12.492 15.3333333,9 C15.3333333,5.508 12.492,2.66666667 9,2.66666667 C5.508,2.66666667 2.66666667,5.508 2.66666667,9 Z M14.1776032,13.7062699 L21.902,21.4306667 C22.0326667,21.5613333 22.0326667,21.772 21.902,21.9026667 C21.8373333,21.9673333 21.752,22 21.6666667,22 C21.5813333,22 21.496,21.9673333 21.4306667,21.9026667 L13.7062599,14.1776124 C12.4623143,15.3093199 10.8103434,16 9,16 C5.14,16 2,12.86 2,9 C2,5.14 5.14,2 9,2 C12.86,2 16,5.14 16,9 C16,10.8103482 15.3093162,12.4623231 14.1776032,13.7062699 Z"/>
  </g>
</svg>
