<svg xmlns="http://www.w3.org/2000/svg" width="84" height="66" viewBox="0 0 84 66">
  <g fill="none" fill-rule="evenodd" transform="translate(0 -9)">
    <rect width="84" height="84"/>
    <path stroke="#D8D8D8" stroke-linecap="round" stroke-linejoin="round" stroke-width="4" d="M74.4553635,73 C77.0663008,72.741681 81.8645924,70.5442475 81.8645924,64.8922282 L82,32.4714738 C81.8090405,29.8056219 80.0973489,24.7804566 74.4310596,24.7804566 L54.154632,24.7804566 C53.6859132,17.8919504 51.3805112,11.0034443 44.9226079,11.0034443 L32.7671673,11 C26.309264,11 24.003862,17.8885062 23.5351432,24.7770124 L9.72356288,24.7770124 C6.85917028,24.9044498 2.00879882,26.9193378 2.00879882,33.3738681 L2.00879882,64.8095661 C2.00879882,65.4915282 1.77617542,68.3915894 3.70313044,70.5476918 C5.08845486,72.1044942 6.93902607,73 9.47705151,73 L74.4553635,73 Z M36.6939891,38.5540248 C30.7950764,38.3611466 26.0072008,43.1211044 26.2016323,48.9625576 L36.6939891,38.5540248 Z M68.0078762,38.6091328 C68.0078762,36.7423476 66.4697842,35.2199878 64.587965,35.2199878 C62.6992019,35.2199878 61.1680539,36.7423476 61.1680539,38.6091328 C61.1680539,40.4828065 62.6992019,42.0017221 64.587965,42.0017221 C66.4697842,42.0017221 68.0078762,40.4828065 68.0078762,38.6091328 Z M36.8398128,66.1218266 C27.3022534,66.1218266 19.5458255,58.4273651 19.5458255,48.9660019 C19.5458255,39.5011944 27.3022534,31.806733 36.8398128,31.806733 C46.3773721,31.806733 54.1338,39.5011944 54.1338,48.9660019 C54.1338,58.4273651 46.3773721,66.1218266 36.8398128,66.1218266 Z"/>
  </g>
</svg>
