<svg xmlns="http://www.w3.org/2000/svg" width="84" height="70" viewBox="0 0 84 70">
  <g fill="none" fill-rule="evenodd" transform="translate(0 -7)">
    <rect width="84" height="84"/>
    <path stroke="#D8D8D8" stroke-linecap="round" stroke-linejoin="round" stroke-width="4" d="M68.008953,68.0595789 L71.4858534,68.0595789 L68.008953,68.0595789 Z M54.1013516,68.0595789 L57.578252,68.0595789 L54.1013516,68.0595789 Z M40.1902734,68.0595789 L43.6671737,68.0595789 L40.1902734,68.0595789 Z M26.282672,68.0595789 L29.7595723,68.0595789 L26.282672,68.0595789 Z M12.3750706,68.0595789 L15.851971,68.0595789 L12.3750706,68.0595789 Z M68.008953,15.9473684 L71.4858534,15.9473684 L68.008953,15.9473684 Z M54.1013516,15.9473684 L57.578252,15.9473684 L54.1013516,15.9473684 Z M40.1902734,15.9473684 L43.6671737,15.9473684 L40.1902734,15.9473684 Z M26.282672,15.9473684 L29.7595723,15.9473684 L26.282672,15.9473684 Z M12.3750706,15.9473684 L15.851971,15.9473684 L12.3750706,15.9473684 Z M2,61.1087368 L81.9478465,61.1087368 L2,61.1087368 Z M2,22.8947368 L81.9478465,22.8947368 L2,22.8947368 Z M36.8002955,22.8947368 L36.8002955,61.1087368 L36.8002955,22.8947368 Z M2.0312921,75 L82,75 L82,9 L2.0312921,9 L2.0312921,75 Z"/>
  </g>
</svg>
