<svg xmlns="http://www.w3.org/2000/svg" width="24" height="24" viewBox="0 0 24 24">
  <g fill="none">
    <circle cx="12" cy="12" r="12" fill="#D8D8D8" opacity=".5"/>
    <path fill="#54595F" stroke="#54595F" stroke-width=".75" d="M12.0177945,11.250901 L15.2194118,8.20997972 C15.4449869,7.99572667 15.786133,8.00279935 15.9956036,8.21226999 L15.791876,8.00854237 C15.9956036,8.21226999 16.0046573,8.56906354 15.7992705,8.79263568 C15.7992705,8.79263568 14.0662846,10.688026 12.7745604,12.0095652 C13.9567466,13.2251958 15.7976941,15.2232766 15.7976941,15.2232766 C15.9967791,15.4384741 15.9866526,15.7870356 15.7737369,15.9999513 L15.99823,15.7754581 C15.7856416,15.9880465 15.4347996,15.9923465 15.2153335,15.7843313 L12.0237888,12.7593101 C10.812161,13.9384232 8.7997678,15.7902053 8.7997678,15.7902053 C8.57180748,16.0008592 8.22593651,15.9934232 8.01646588,15.7839525 L8.22019349,15.9876801 C8.01646588,15.7839525 8.00972471,15.4306693 8.21796407,15.2114274 L11.2656706,12.0026923 L8.2138858,8.78288363 C7.99986348,8.55707775 8.00990419,8.21296365 8.2228199,8.00004795 L7.99832671,8.22454113 C8.21091514,8.0119527 8.55947966,8.00056496 8.77613637,8.1998369 C8.77613637,8.1998369 10.6940903,9.95587044 12.0177945,11.250901 Z" transform="rotate(45 12 12)"/>
  </g>
</svg>
