<svg xmlns="http://www.w3.org/2000/svg" width="15" height="18" viewBox="0 0 15 18">
  <g fill="none" fill-rule="evenodd" transform="translate(-5 -3)">
    <rect width="24" height="24"/>
    <path stroke="#FFF" stroke-linecap="round" stroke-linejoin="round" stroke-width="1.25" d="M13.2043088,7.21497289 L13.2043088,6.09900297 L13.8884137,6.09900297 L13.8884137,4.34983383 C13.8884137,4.15672556 13.7351742,4 13.5463612,4 L10.8099416,4 C10.6211286,4 10.4678891,4.15672556 10.4678891,4.34983383 L10.4678891,6.09900297 L11.151994,6.09900297 L11.151994,7.21497289 L13.2043088,7.21497289 Z M12.2068838,7.1324121 C8.77883412,7.1324121 6,10.0129439 6,13.5665559 C6,17.1194683 8.77883412,20 12.2068838,20 C15.6356176,20 18.4144517,17.1194683 18.4144517,13.5665559 C18.4144517,10.0129439 15.6356176,7.1324121 12.2068838,7.1324121 Z M11.8956161,13.8394263 L15.2381526,10.322197 L11.8956161,13.8394263 Z M16.9135256,7.3856918 L17.7789183,6.48871786 C17.8076507,6.45863215 17.8445923,6.43834179 17.8787976,6.43204478 C17.9130028,6.42714711 17.9451557,6.43484345 17.9649948,6.45653315 L18.9761018,7.50323596 C18.9959409,7.52422599 19.0041501,7.5564107 18.9979932,7.59349309 C18.9925204,7.62917614 18.9726813,7.66625853 18.9439489,7.69564457 L18.0785562,8.59331817 C18.0498238,8.62340388 16.8847931,7.41507784 16.9135256,7.3856918 Z"/>
  </g>
</svg>
