<svg xmlns="http://www.w3.org/2000/svg" width="16" height="13" viewBox="0 0 16 13">
  <g fill="none" fill-rule="evenodd" transform="translate(-4 -6)">
    <rect width="24" height="24"/>
    <path fill="#FFF" d="M9.49376293,18.5166479 C9.46467334,18.5594504 9.42999064,18.5996337 9.38973663,18.6362105 L9.36034597,18.6629163 L9.24484566,18.7895421 C9.10983505,18.9375576 8.9293224,19.0078446 8.7510426,18.9993062 C8.56125272,19.0034025 8.37029073,18.9254382 8.23309148,18.7686429 L4.18145118,14.1383104 C3.93416497,13.8557045 3.93967216,13.4081886 4.19774267,13.1345237 C4.45402642,12.8627535 4.87311169,12.8665362 5.12553228,13.1342098 L8.73092339,16.9574638 L18.8713423,6.20429018 C19.1281366,5.93197852 19.5436341,5.9310788 19.8033989,6.20654038 C20.0613652,6.48009479 20.066308,6.92570232 19.81326,7.20312514 L9.49376293,18.5166479 Z"/>
  </g>
</svg>
