<svg xmlns="http://www.w3.org/2000/svg" width="16" height="16" viewBox="0 0 16 16">
  <g fill="none" fill-rule="evenodd" transform="translate(-4 -4)">
    <rect width="24" height="24"/>
    <g stroke="#54595F" stroke-linecap="round" stroke-linejoin="round" stroke-width="1.5" transform="translate(5 5)">
      <path d="M13.7083333 1.67906667C13.7083333.91315 13.0870833.2919 12.3205833.2919L1.67941667.2919C.912916667.2919.291666667.91315.291666667 1.67906667L.291666667 12.3208167C.291666667 13.0873167.912916667 13.7085667 1.67941667 13.7085667L12.3205833 13.7085667C13.0870833 13.7085667 13.7083333 13.0873167 13.7083333 12.3208167L13.7083333 1.67906667zM.291666667 3.79166667L13.7083333 3.79166667"/>
      <polyline points="8.423 6.575 9.63 6.129 9.63 11.33"/>
      <path d="M3.89106667,6.12955 L7.0084,6.12955 L4.98306667,8.61455 C4.98306667,8.61455 7.22948333,8.43955 7.0084,10.2093833 C6.79315,11.9331333 4.2644,11.5452167 3.7044,10.5109667"/>
    </g>
  </g>
</svg>
