<svg xmlns="http://www.w3.org/2000/svg" width="24" height="24" viewBox="0 0 24 24">
  <g fill="none">
    <circle cx="12" cy="12" r="12" fill="#248700"/>
    <path stroke="#FFF" stroke-linecap="round" stroke-linejoin="round" stroke-width="1.25" d="M13.6901394,15.0477067 L15.9565217,15.0477067 C17.6371304,15.0477067 19,13.7821587 19,12.2202984 C19,10.658438 17.6371304,9.39289002 15.9565217,9.39289002 C15.940087,9.39289002 15.9248696,9.39741388 15.9090435,9.39741388 C15.6144348,7.47760361 13.8431304,6 11.6956522,6 C9.34243478,6 7.43478261,7.77221956 7.43478261,9.95837169 C7.43478261,10.1528974 7.45486957,10.3417683 7.48408696,10.5283772 C7.46704348,10.5283772 7.45182609,10.5238534 7.43478261,10.5238534 C6.09017391,10.5238534 5,11.536631 5,12.78578 C5,14.0349291 6.09017391,15.0477067 7.43478261,15.0477067 L9.7027835,15.0477067 M11.6956522,12.2202984 L11.6956522,18 L10.08,16.6919115 M13.31,16.6919115 L11.6956522,18"/>
  </g>
</svg>
