<?xml version="1.0" encoding="UTF-8"?>
<svg width="17px" height="14px" viewBox="0 0 17 14" version="1.1" xmlns="http://www.w3.org/2000/svg" xmlns:xlink="http://www.w3.org/1999/xlink">
    <!-- Generator: sketchtool 51.3 (57544) - http://www.bohemiancoding.com/sketch -->
    <title>8BF85CED-BA7D-4CC7-A878-F53225859C9C</title>
    <desc>Created with sketchtool.</desc>
    <defs></defs>
    <g id="Page-1" stroke="none" stroke-width="1" fill="none" fill-rule="evenodd">
        <g id="Assets" transform="translate(-20.000000, -185.000000)">
            <g id="icon-folder-selected-Accessible-Green" transform="translate(16.000000, 180.000000)">
                <rect id="bounds" x="0" y="0" width="24" height="24"></rect>
                <path d="M6.5,5.5 L10.6550488,5.5 C11.0199549,5.5 11.3666418,5.65945341 11.6041196,5.93651078 L12.655137,7.16269784 C12.7026326,7.21810932 12.77197,7.25 12.8449512,7.25 L18.5,7.25 C19.6045695,7.25 20.5,8.1454305 20.5,9.25 L20.5,16.5 C20.5,17.6045695 19.6045695,18.5 18.5,18.5 L6.5,18.5 C5.3954305,18.5 4.5,17.6045695 4.5,16.5 L4.5,7.5 C4.5,6.3954305 5.3954305,5.5 6.5,5.5 Z" id="Path" stroke="#248700" fill-opacity="0.4" fill="#248700" stroke-linecap="round" stroke-linejoin="round"></path>
            </g>
        </g>
    </g>
</svg>