<?xml version="1.0" encoding="UTF-8"?>
<svg width="16px" height="16px" viewBox="0 0 16 16" version="1.1" xmlns="http://www.w3.org/2000/svg" xmlns:xlink="http://www.w3.org/1999/xlink">
    <!-- Generator: sketchtool 51.3 (57544) - http://www.bohemiancoding.com/sketch -->
    <title>32D8B55C-15DB-4A45-935C-29EE1A746B8F</title>
    <desc>Created with sketchtool.</desc>
    <defs></defs>
    <g id="Page-1" stroke="none" stroke-width="1" fill="none" fill-rule="evenodd">
        <g id="Assets" transform="translate(-449.000000, -214.000000)">
            <g id="icon-rename-Shark" transform="translate(445.000000, 210.000000)">
                <rect id="bounds" x="0" y="0" width="24" height="24"></rect>
                <path d="M8.38366914,16.2999957 L15.7961102,8.87687819 L8.38366914,16.2999957 Z M18.7151417,7.07830115 L16.9245165,5.28524499 C16.5447055,4.90491834 15.9284315,4.90491834 15.5486204,5.28524499 L6.46623605,14.3799595 L9.63275735,17.5507797 L18.7151417,8.45606514 C19.0949528,8.07573849 19.0949528,7.45862781 18.7151417,7.07830115 Z M5.31332579,17.5734766 L6.42702975,18.6886925 L5.31332579,17.5734766 Z M9.63275735,17.5507797 C9.59110066,17.5924929 5.63616517,18.9684166 5.63616517,18.9684166 C5.26860611,19.118707 4.88879508,18.702188 5.03030532,18.3611209 C5.03030532,18.3611209 6.42457935,14.4210594 6.46623605,14.3799595 L9.63275735,17.5507797 Z" id="Path" stroke="#248700" stroke-width="1.25" stroke-linecap="round" stroke-linejoin="round"></path>
            </g>
        </g>
    </g>
</svg>