<svg xmlns="http://www.w3.org/2000/svg" width="24" height="24" viewBox="0 0 24 24">
  <g fill="none">
    <circle cx="12" cy="12" r="12" fill="#248700"/>
    <path fill="#F4F9F2" d="M7.05553415,8.77714616 L5.43218233,7.13864088 L6.30789136,6.2547574 L17.6921086,17.7452426 L16.8163996,18.6291261 L14.7208252,16.5139901 C13.8839532,16.8293648 12.9770641,17 12,17 C9.76716533,17 7.90081002,16.108881 6.39904916,14.6356938 C5.87797545,14.1245345 5.43833891,13.577992 5.07640265,13.0304854 C4.85660519,12.6979943 4.70930994,12.4343465 4.63173804,12.2733743 L4.5,12 L4.63173804,11.7266257 C4.70930994,11.5656535 4.85660519,11.3020057 5.07640265,10.9695146 C5.43833891,10.422008 5.87797545,9.87546553 6.39904916,9.36430619 C6.61063809,9.15674313 6.82946462,8.96073472 7.05553402,8.77714541 L7.05553415,8.77714616 Z M13.6018169,15.3845363 L12.6415652,14.4153209 C12.436942,14.4705534 12.221878,14.5 12,14.5 C10.6320574,14.5 9.52312085,13.3807119 9.52312085,12 C9.52312085,11.7760508 9.55229508,11.5589793 9.60701677,11.352446 L8.64676506,10.3832307 C8.41465817,10.8727748 8.28468127,11.4210668 8.28468127,12 C8.28468127,14.0710678 9.94808612,15.75 12,15.75 C12.573579,15.75 13.1168003,15.6188098 13.6018169,15.3845363 Z M9.27917481,7.48600986 C10.1160468,7.17063522 11.0229359,7 12,7 C14.2328347,7 16.09919,7.89111903 17.6009508,9.36430619 C18.1220245,9.87546553 18.5616611,10.422008 18.9235973,10.9695146 C19.1433948,11.3020057 19.2906901,11.5656535 19.368262,11.7266257 L19.5,12 L19.368262,12.2733743 C19.2906901,12.4343465 19.1433948,12.6979943 18.9235973,13.0304854 C18.5616611,13.577992 18.1220245,14.1245345 17.6009508,14.6356938 C17.389362,14.8432568 17.1705356,15.0392651 16.9444663,15.2228543 L15.3532349,13.6167693 C15.5853418,13.1272252 15.7153187,12.5789332 15.7153187,12 C15.7153187,9.92893219 14.0519139,8.25 12,8.25 C11.426421,8.25 10.8831997,8.38119019 10.3981831,8.61546372 L9.27917481,7.48600986 Z M11.3584348,9.58467906 C11.563058,9.52944656 11.778122,9.5 12,9.5 C13.3679426,9.5 14.4768791,10.6192881 14.4768791,12 C14.4768791,12.2239492 14.4477049,12.4410207 14.3929832,12.647554 L11.3584348,9.58467906 Z"/>
  </g>
</svg>
