<svg xmlns="http://www.w3.org/2000/svg" width="24" height="24" viewBox="0 0 24 24">
  <g fill="none">
    <circle cx="12" cy="12" r="11.625" fill="#FFF" stroke="#D8D8D8" stroke-width=".75"/>
    <path fill="#D8D8D8" d="M6.39904916,14.6356938 C5.87797545,14.1245345 5.43833891,13.577992 5.07640265,13.0304854 C4.85660519,12.6979943 4.70930994,12.4343465 4.63173804,12.2733743 L4.5,12 L4.63173804,11.7266257 C4.70930994,11.5656535 4.85660519,11.3020057 5.07640265,10.9695146 C5.43833891,10.422008 5.87797545,9.87546553 6.39904916,9.36430619 C7.90081003,7.89111903 9.76716534,7 12,7 C14.2328347,7 16.09919,7.89111903 17.6009508,9.36430619 C18.1220245,9.87546553 18.5616611,10.422008 18.9235973,10.9695146 C19.1433948,11.3020057 19.2906901,11.5656535 19.368262,11.7266257 L19.5,12 L19.368262,12.2733743 C19.2906901,12.4343465 19.1433948,12.6979943 18.9235973,13.0304854 C18.5616611,13.577992 18.1220245,14.1245345 17.6009508,14.6356938 C16.09919,16.108881 14.2328347,17 12,17 C9.76716534,17 7.90081003,16.108881 6.39904916,14.6356938 Z M12,15.75 C14.0710678,15.75 15.75,14.0710678 15.75,12 C15.75,9.92893219 14.0710678,8.25 12,8.25 C9.92893219,8.25 8.25,9.92893219 8.25,12 C8.25,14.0710678 9.92893219,15.75 12,15.75 Z M12,14.5 C10.6192881,14.5 9.5,13.3807119 9.5,12 C9.5,10.6192881 10.6192881,9.5 12,9.5 C13.3807119,9.5 14.5,10.6192881 14.5,12 C14.5,13.3807119 13.3807119,14.5 12,14.5 Z"/>
  </g>
</svg>
