<svg xmlns="http://www.w3.org/2000/svg" width="19" height="18" viewBox="0 0 19 18">
  <g fill="none" fill-rule="evenodd" transform="translate(-2 -3)">
    <rect width="24" height="24"/>
    <path stroke="#54595F" stroke-linecap="round" stroke-linejoin="round" stroke-width="1.5" d="M18.2334043 10.9268364L16.8674913 10.9268364M17.484887 8.72581818L16.5040609 8.72581818M7.8064913 5.81534545C11.7771 4.48007273 16.5045783 4.56225455 16.5045783 4.56225455 18.3243174 4.56225455 17.9281435 6.52516364 16.6213609 6.52516364L16.0980565 6.52516364"/>
    <path stroke="#54595F" stroke-linecap="round" stroke-linejoin="round" stroke-width="1.5" d="M7.8064913,12.4623273 C7.8064913,12.4623273 11.5494478,15.3605091 11.2811435,18.3925091 C11.0778826,20.6928727 15.4128826,18.9336 12.9996217,13.1277818 L18.3487087,13.1277818 C19.841013,13.1277818 19.8365783,10.9270545 18.3487087,10.9270545 L18.2326652,10.9270545 C19.7249696,10.9270545 19.7205348,8.7256 18.2326652,8.7256 L17.4846652,8.7256 C18.9769696,8.7256 18.9725348,6.52487273 17.4846652,6.52487273 L16.6213609,6.52487273"/>
    <polygon stroke="#54595F" stroke-linecap="round" stroke-linejoin="round" stroke-width="1.5" points="3.37 13.091 7.804 13.091 7.804 4.364 3.37 4.364"/>
  </g>
</svg>
