<svg xmlns="http://www.w3.org/2000/svg" width="24" height="24" viewBox="0 0 24 24">
  <g fill="none" fill-rule="evenodd">
    <rect width="24" height="24" fill="#FFF6F8" rx="2"/>
    <path stroke="#C12335" stroke-linecap="round" stroke-linejoin="round" stroke-width="1.25" d="M20,14.7621176 L17.0169565,10.4585294 L14.6208696,14.1965882 L12.7582609,11.7021765 L8.2523913,18 M8.88956522,12.2437647 C9.64086957,12.2437647 10.2493478,11.6394118 10.2493478,10.894 C10.2493478,10.1492353 9.64086957,9.54488235 8.88956522,9.54488235 C8.13826087,9.54488235 7.52913043,10.1492353 7.52913043,10.894 C7.52913043,11.6394118 8.13826087,12.2437647 8.88956522,12.2437647 Z M20,17.4868824 C20,17.7696471 19.7684783,18 19.4834783,18 L5.51652174,18 C5.23152174,18 5,17.7696471 5,17.4868824 L5,7.51376471 C5,7.22970588 5.23152174,7 5.51652174,7 L19.4834783,7 C19.7684783,7 20,7.22970588 20,7.51376471 L20,17.4868824 Z"/>
  </g>
</svg>
