<svg xmlns="http://www.w3.org/2000/svg" width="271" height="24" viewBox="0 0 271 24">
  <g fill="none" fill-rule="evenodd">
    <path fill="#4B286D" d="M50.5493417,0.409515789 L28.5841872,4.65877895 L28.5841872,6.14551579 L28.6569927,6.12783158 C43.1647854,2.70214737 50.5493417,0.6432 50.6091462,0.626778947 C50.6897522,0.606568421 50.7196545,0.544673684 50.7079536,0.491621053 C50.6962527,0.436042105 50.6377483,0.391831579 50.5493417,0.409515789"/>
    <path fill="#6C0" d="M32.6906765,0.0024 C31.6245962,0.0617684211 29.6458472,1.59776842 28.5615655,2.50976842 C24.24004,6.14134737 21.0274981,9.4824 18.6912221,12.9775579 C13.8210553,15.5127158 7.61178757,18.1186105 1.44672321,20.1535579 L1.29851205,20.2028211 L0.111522644,23.3076632 L0.788873662,23.0525053 C4.7112691,21.6011368 11.2572621,18.8727158 17.189609,15.8424 C16.8554838,16.7089263 16.6877712,17.5021895 16.6877712,18.2297684 C16.6877712,18.7716632 16.7813782,19.2731368 16.9672922,19.7341895 C17.3417204,20.6449263 18.0775759,21.3371368 19.0955525,21.7299789 C20.6140669,22.3198737 22.6877231,22.3312421 25.050001,21.6352421 C31.0915561,19.8554526 38.2524955,14.3973474 39.8139131,13.3110316 L39.8711174,13.2693474 C39.932222,13.2276632 39.9374224,13.1619789 39.9114204,13.1190316 C39.8763178,13.0697684 39.8061125,13.0571368 39.7476081,13.0887158 L39.6696022,13.1354526 C37.9950761,14.1093474 29.8629635,18.8007158 24.5767654,20.1800842 C21.8842626,20.8811368 19.8327081,20.4971368 19.0591498,19.4449263 C18.7900295,19.0861895 18.6600197,18.6314526 18.6600197,18.0996632 C18.6600197,17.0664 19.1618575,15.7476632 20.1278303,14.2836632 C21.0170973,13.7897684 21.8452596,13.3097684 22.5941161,12.8550316 C27.7516045,10.0369263 33.6943521,4.56113684 33.9478712,1.22134737 C33.9491713,1.19861053 33.9491713,1.17208421 33.9491713,1.14555789 C33.9491713,0.860084211 33.8191615,0.559452632 33.5942446,0.340926316 C33.3550266,0.102189474 33.0352025,-0.0190736842 32.6906765,0.0024 M32.1173333,1.59650526 C32.4553588,1.38429474 32.5541662,1.51692632 32.4540587,1.75692632 C32.2902464,2.1384 31.5478905,4.44997895 26.018574,8.85966316 C24.5767654,10.0078737 23.5509881,10.6546105 21.4734316,11.8470316 C24.8744878,7.21503158 29.842162,3.03145263 32.1173333,1.59650526"/>
    <polygon fill="#4B286D" points="28.514 4.673 5.407 9.498 4.512 11.832 28.586 6.146 28.623 6.137 28.623 4.649"/>
    <path fill="#4B286D" d="M60.3702814,6.49351579 L60.3702814,3.94446316 L48.7799084,3.94446316 L48.7799084,6.49351579 L52.6945032,6.49351579 L52.6945032,16.8577263 L56.449186,16.8577263 L56.449186,6.49351579 L60.3702814,6.49351579 Z M69.459266,6.45562105 L69.459266,8.86951579 L74.0174093,8.86951579 L74.0174093,11.3756211 L69.459266,11.3756211 L69.459266,14.2379368 L74.9391787,14.2379368 L74.9391787,16.8564632 L65.7279849,16.8564632 L65.7279849,3.94572632 L74.9391787,3.94572632 L74.9391787,6.45562105 L69.459266,6.45562105 Z M91.1917029,14.3086737 L85.4348693,14.3086737 L85.4348693,3.94446316 L81.6580848,3.94446316 L81.6580848,16.8564632 L91.1917029,16.8564632 L91.1917029,14.3086737 Z M104.075673,3.94446316 L104.075673,12.1474105 C104.075673,12.7903579 104.075673,12.9697263 104.03407,13.2173053 C103.915761,13.9992 103.131802,14.4539368 101.887608,14.4690947 C100.967139,14.4564632 100.293688,14.1912 99.9777646,13.7225684 C99.8204528,13.4813053 99.7450471,13.0493053 99.7450471,12.3608842 L99.7450471,3.94446316 L95.8278521,3.94446316 L95.8278521,12.8434105 C95.8278521,14.0775158 95.9968648,14.6307789 96.5689079,15.3356211 C97.5153792,16.4876211 99.3576179,17.0914105 101.896709,17.0914105 L101.978615,17.0914105 L102.03452,17.0914105 C105.434276,17.0914105 107.185508,15.7992 107.695146,14.5979368 C107.948665,14.0143579 107.968166,13.7352 107.968166,12.5579368 L107.968166,3.94446316 L104.075673,3.94446316 Z M121.606194,8.86572632 C119.058002,8.30488421 118.166135,8.24425263 118.166135,7.25898947 C118.166135,6.34446316 119.42723,6.05898947 120.155284,6.05898947 C121.331873,6.05898947 122.717777,6.32551579 124.129684,7.03035789 L125.156761,4.65562105 C123.711052,3.88635789 121.851912,3.56677895 120.061677,3.56677895 C116.546213,3.56677895 114.189135,4.95246316 114.091628,7.65309474 C113.98892,10.1149895 116.052175,11.0370947 117.946418,11.4173053 C119.771756,11.7836211 121.624395,12.0981474 121.662098,13.1516211 C121.698501,14.1242526 120.797533,14.5398316 119.099605,14.5398316 C117.526486,14.5398316 116.066476,14.0497263 114.570064,13.4421474 L113.698998,16.0227789 C115.415127,16.7339368 117.157259,17.1242526 118.956594,17.1242526 C121.452782,17.1242526 123.272919,16.7465684 124.61592,15.5238316 C125.54549,14.6825684 125.849713,13.6682526 125.849713,12.7019368 C125.849713,10.6606737 124.541815,9.50993684 121.606194,8.86572632 Z"/>
    <text fill="#2A2C2E" font-family="HelveticaNeue-Light, Helvetica Neue" font-size="19" font-weight="300" letter-spacing=".3">
      <tspan x="137" y="18">Virtual Assistant</tspan>
    </text>
  </g>
</svg>
