<svg xmlns="http://www.w3.org/2000/svg" width="13" height="16" viewBox="0 0 13 16">
  <g fill="none" fill-rule="evenodd" transform="translate(-5 -4)">
    <rect width="24" height="24"/>
    <path stroke="#4B286D" stroke-linecap="round" stroke-linejoin="round" stroke-width="1.25" d="M12.4166667,6.2173913 L12.1111111,6.2173913 L12.1111111,5.81626087 C12.1111111,5.35182609 11.5959444,5 11.1302778,5 L10.7061667,5 C10.2398889,5 9.66666667,5.35182609 9.66666667,5.81626087 L9.66666667,6.2173913 L9.36111111,6.2173913 C8.8545,6.2173913 8.44444444,6.62643478 8.44444444,7.13043478 C8.44444444,7.63443478 8.8545,8.04347826 9.36111111,8.04347826 L12.4166667,8.04347826 C12.9232778,8.04347826 13.3333333,7.63443478 13.3333333,7.13043478 C13.3333333,6.62643478 12.9232778,6.2173913 12.4166667,6.2173913 Z M11.4877778,13.5217391 L15.1666667,13.5217391 L11.4877778,13.5217391 Z M11.4877778,15.3478261 L15.1666667,15.3478261 L11.4877778,15.3478261 Z M11.4877778,17.173913 L15.1666667,17.173913 L11.4877778,17.173913 Z M15.5907778,11.0869565 L9.66666667,11.0869565 L9.66666667,19 L17,19 L17,12.5362609 L15.5907778,11.0869565 Z M15.7777778,9.87869565 L15.7777778,6.82608696 L14.5555556,6.82608696 M8.44444444,19 L6,19 L6,6.82608696 L7.22222222,6.82608696"/>
  </g>
</svg>
