<svg xmlns="http://www.w3.org/2000/svg" width="26" height="20" viewBox="0 0 26 20">
  <g fill="none" fill-rule="evenodd" transform="translate(-3 -6)">
    <rect width="32" height="32"/>
    <path fill="#FFF" d="M22.7576847,22.7184424 C22.7576847,23.1712973 22.3836801,23.5388318 21.922853,23.5388318 C21.4620259,23.5388318 21.0880212,23.1712973 21.0880212,22.7184424 L21.0880212,19.4368847 C21.0880212,18.9840298 21.4620259,18.6164953 21.922853,18.6164953 C22.3836801,18.6164953 22.7576847,18.9840298 22.7576847,19.4368847 L22.7576847,22.7184424 Z M19.6409795,22.7184424 C19.6409795,23.1712973 19.2669749,23.5388318 18.8061478,23.5388318 C18.3453207,23.5388318 17.971316,23.1712973 17.971316,22.7184424 L17.971316,18.3430322 C17.971316,17.8901772 18.3453207,17.5226427 18.8061478,17.5226427 C19.2669749,17.5226427 19.6409795,17.8901772 19.6409795,18.3430322 L19.6409795,22.7184424 Z M16.5242743,22.7184424 C16.5242743,23.1712973 16.1502697,23.5388318 15.6894426,23.5388318 C15.2286155,23.5388318 14.8546108,23.1712973 14.8546108,22.7184424 L14.8546108,12.8737694 C14.8546108,12.4209145 15.2286155,12.05338 15.6894426,12.05338 C16.1502697,12.05338 16.5242743,12.4209145 16.5242743,12.8737694 L16.5242743,22.7184424 Z M13.4075691,22.7184424 C13.4075691,23.1712973 13.0335645,23.5388318 12.5727374,23.5388318 C12.1119103,23.5388318 11.7379056,23.1712973 11.7379056,22.7184424 L11.7379056,17.2491796 C11.7379056,16.7963247 12.1119103,16.4287902 12.5727374,16.4287902 C13.0335645,16.4287902 13.4075691,16.7963247 13.4075691,17.2491796 L13.4075691,22.7184424 Z M10.2908639,22.7184424 C10.2908639,23.1712973 9.91685932,23.5388318 9.45603219,23.5388318 C8.99520507,23.5388318 8.62120045,23.1712973 8.62120045,22.7184424 L8.62120045,15.0614745 C8.62120045,14.6086196 8.99520507,14.2410851 9.45603219,14.2410851 C9.91685932,14.2410851 10.2908639,14.6086196 10.2908639,15.0614745 L10.2908639,22.7184424 Z M7.17415875,22.7184424 C7.17415875,23.1712973 6.80015412,23.5388318 6.339327,23.5388318 C5.87849987,23.5388318 5.50449525,23.1712973 5.50449525,22.7184424 L5.50449525,19.4368847 C5.50449525,18.9840298 5.87849987,18.6164953 6.339327,18.6164953 C6.80015412,18.6164953 7.17415875,18.9840298 7.17415875,19.4368847 L7.17415875,22.7184424 Z M24.2180837,16.215489 C21.1225276,16.215489 18.6046751,13.7401006 18.6046751,10.6970028 C18.6046751,9.91489827 18.7760938,9.17326624 19.0744071,8.49835922 L5.75271855,8.49835922 C4.23221166,8.49835922 3,9.70925399 3,11.2034566 L3,23.2949026 C3,24.7891052 4.23221166,26 5.75271855,26 L23.7127323,26 C25.2332391,26 26.4654508,24.7891052 26.4654508,23.2949026 L26.4654508,15.7473201 C25.7764363,16.044848 25.0184091,16.215489 24.2180837,16.215489 Z M27.0064218,12.0555677 L24.690042,13.9960621 C24.64997,14.0299716 24.6021063,14.0474732 24.557582,14.0726318 C24.5553558,14.0737257 24.5531295,14.0748195 24.5509033,14.0770072 C24.527528,14.0901335 24.5074921,14.1109166 24.4830037,14.1218552 C24.4729857,14.1262306 24.4629677,14.1284183 24.4529497,14.1316998 C24.3561093,14.1699847 24.2537032,14.1929556 24.149071,14.1929556 C24.0444387,14.1929556 23.9420327,14.1699847 23.8451922,14.1316998 C23.8351742,14.1284183 23.8251563,14.1262306 23.8151383,14.1218552 C23.7906499,14.1109166 23.7706139,14.0901335 23.7472386,14.0770072 C23.7450124,14.0748195 23.7427862,14.0737257 23.74056,14.0726318 C23.6960356,14.0474732 23.6481719,14.0299716 23.6081,13.9960621 L21.2917202,12.0555677 C20.9399777,11.7624152 20.8976796,11.2439291 21.198219,10.8993656 C21.4954191,10.554802 22.0263721,10.5154233 22.3736621,10.807482 L23.3142392,11.5950558 L23.3142392,8.02253336 C23.3142392,7.56967841 23.6882439,7.20214395 24.149071,7.20214395 C24.6098981,7.20214395 24.9839027,7.56967841 24.9839027,8.02253336 L24.9839027,11.5950558 L25.9244798,10.807482 C26.272883,10.5143295 26.8027228,10.5537082 27.0999229,10.8993656 C27.4004624,11.2439291 27.3581642,11.7624152 27.0064218,12.0555677 Z M24.2180837,6 C21.5777892,6 19.4395068,8.1023846 19.4395068,10.6970028 C19.4395068,13.2916211 21.5777892,15.3950995 24.2180837,15.3950995 C26.8594914,15.3950995 29,13.2916211 29,10.6970028 C29,8.1023846 26.8594914,6 24.2180837,6 Z"/>
  </g>
</svg>
