<?xml version="1.0" encoding="UTF-8"?>
<svg width="18px" height="17px" viewBox="0 0 18 17" version="1.1" xmlns="http://www.w3.org/2000/svg" xmlns:xlink="http://www.w3.org/1999/xlink">
    <!-- Generator: Sketch 51 (57462) - http://www.bohemiancoding.com/sketch -->
    <title>Path</title>
    <desc>Created with Sketch.</desc>
    <defs></defs>
    <g id="Page-1" stroke="none" stroke-width="1" fill="none" fill-rule="evenodd">
        <g id="Reports" transform="translate(-379.000000, -424.000000)">
            <rect fill="transparent" x="0" y="0" width="1440" height="1532"></rect>
            <g id="Conversation" transform="translate(209.000000, 238.000000)" stroke="#2A2C2E" stroke-linecap="round" stroke-linejoin="round" stroke-width="1.5">
                <g id="icon-thumbs-DOWN" transform="translate(51.000000, 182.000000)">
                    <path d="M120,20 L124.410056,20 L124.410056,11.243439 L120,11.243439 L120,20 Z M132.651573,17.8748257 L133.172508,17.8748257 L132.651573,17.8748257 Z M134.030461,15.6693804 L133.055198,15.6693804 L134.030461,15.6693804 Z M134.774086,13.4629317 L133.417069,13.4629317 L134.774086,13.4629317 Z M124.409062,11.924739 C124.409062,11.924739 128.129177,9.01993271 127.863739,5.97966917 C127.661926,3.67488853 131.970579,5.43784003 129.571691,11.2574864 L134.889408,11.2574864 C136.372682,11.2574864 136.367711,13.4629317 134.889408,13.4629317 L134.774086,13.4629317 C136.270284,13.4629317 136.230518,15.6693804 134.774086,15.6693804 L134.030461,15.6693804 C135.512741,15.6693804 135.509758,17.8748257 134.030461,17.8748257 L133.172508,17.8748257 C134.475841,17.8748257 134.858589,19.8424682 133.055198,19.8424682 C133.055198,19.8424682 128.356838,19.924746 124.409062,18.5872307 L124.409062,11.924739 Z" id="Path" transform="translate(128.000000, 12.500000) scale(1, -1) translate(-128.000000, -12.500000) "></path>
                </g>
            </g>
        </g>
    </g>
</svg>