<?xml version="1.0" encoding="UTF-8"?>
<svg width="24px" height="24px" viewBox="0 0 24 24" version="1.1" xmlns="http://www.w3.org/2000/svg" xmlns:xlink="http://www.w3.org/1999/xlink">
    <!-- Generator: Sketch 51 (57462) - http://www.bohemiancoding.com/sketch -->
    <title>tick</title>
    <desc>Created with Sketch.</desc>
    <defs>
        <path d="M17.0829151,10.8282726 C17.0829151,10.6550565 17.02178,10.4818403 16.8995098,10.3595701 L15.9722938,9.44254329 C15.8500236,9.32027306 15.6869966,9.24894876 15.5137805,9.24894876 C15.3405643,9.24894876 15.1775373,9.32027306 15.0552671,9.44254329 L10.8980791,13.5895421 L8.595323,11.286786 C8.47305277,11.1645158 8.31002579,11.0931915 8.13680962,11.0931915 C7.96359345,11.0931915 7.80056647,11.1645158 7.67829624,11.286786 L6.75108029,12.2038128 C6.62881005,12.326083 6.56767494,12.4992992 6.56767494,12.6725153 C6.56767494,12.8457315 6.62881005,13.0087585 6.75108029,13.1310287 L10.4395657,16.8195141 C10.5618359,16.9417844 10.7350521,17.0131087 10.8980791,17.0131087 C11.0712953,17.0131087 11.2445114,16.9417844 11.3667817,16.8195141 L16.8995098,11.286786 C17.02178,11.1645158 17.0829151,11.0014888 17.0829151,10.8282726 Z M19.6505901,12.4789208 C19.6505901,16.7991358 16.14551,20.3042158 11.825295,20.3042158 C7.50508007,20.3042158 4,16.7991358 4,12.4789208 C4,8.15870583 7.50508007,4.65362575 11.825295,4.65362575 C16.14551,4.65362575 19.6505901,8.15870583 19.6505901,12.4789208 Z" id="path-1"></path>
    </defs>
    <g id="tick" stroke="none" stroke-width="1" fill="none" fill-rule="evenodd">
        <g>
            <use fill="#000000" xlink:href="#path-1"></use>
            <use fill="#54595F" xlink:href="#path-1"></use>
        </g>
    </g>
</svg>