<svg xmlns="http://www.w3.org/2000/svg" viewBox="0 0 25.111 24.981">
  <defs>
    <style>
      .cls-1 {
        fill: #fff;
      }
    </style>
  </defs>
  <g id="user-activity" transform="translate(-18 -342)">
    <path id="Path_15" data-name="Path 15" class="cls-1" d="M16.742,10.784a5.149,5.149,0,0,0,3.771-1.571,5.149,5.149,0,0,0,1.571-3.771,5.149,5.149,0,0,0-1.571-3.771,5.31,5.31,0,0,0-7.541,0A5.149,5.149,0,0,0,11.4,5.442a5.149,5.149,0,0,0,1.571,3.771A5.149,5.149,0,0,0,16.742,10.784Z" transform="translate(10.182 341.9)"/>
    <path id="Path_16" data-name="Path 16" class="cls-1" d="M12.852,41.852c-.031-.094-.063-.157-.094-.251L11.5,41.412a.9.9,0,0,1-.6-.346.961.961,0,0,1-.22-.628V38.427a.877.877,0,0,1,.189-.566,1.13,1.13,0,0,1,.566-.377l1.32-.189.094-.189c-.189-.251-.44-.566-.723-.911a.953.953,0,0,1-.22-.628A1.014,1.014,0,0,1,12.1,35a11.09,11.09,0,0,1,.974-1.068c.628-.628.943-.817,1.288-.817a.961.961,0,0,1,.628.22l.943.723c.063-.031.094-.031.157-.063a9.22,9.22,0,0,1,.22-1.32,4.336,4.336,0,0,0-1.131-1.006,3.651,3.651,0,0,0-1.885-.471,6.028,6.028,0,0,1-4.368,1.791A6.028,6.028,0,0,1,4.556,31.2a3.816,3.816,0,0,0-1.885.471A4.108,4.108,0,0,0,1.351,32.9a7.56,7.56,0,0,0-.817,1.823,13.24,13.24,0,0,0-.44,2.105C.031,37.579,0,38.3,0,39.118a3.97,3.97,0,0,0,.88,2.608,2.624,2.624,0,0,0,2.105,1.1h9.144v-.031c.094-.126.251-.346.471-.628C12.695,42.041,12.789,41.946,12.852,41.852Z" transform="translate(18 320.572)"/>
    <path id="Path_17" data-name="Path 17" class="cls-1" d="M49.763,41.219a.657.657,0,0,0-.189-.126l-1.634-.251a5.3,5.3,0,0,0-.377-.88c.094-.157.283-.377.471-.628.22-.283.377-.471.471-.6a.362.362,0,0,0,0-.408,13.984,13.984,0,0,0-1.477-1.54.339.339,0,0,0-.22-.094.285.285,0,0,0-.22.094l-1.288.974c-.251-.126-.5-.22-.817-.346l-.251-1.665a.224.224,0,0,0-.094-.189.265.265,0,0,0-.22-.063H41.907a.285.285,0,0,0-.314.251c-.063.314-.157.848-.251,1.665a3.753,3.753,0,0,0-.817.346l-1.257-.974a.339.339,0,0,0-.22-.094c-.126,0-.408.22-.848.628a8.838,8.838,0,0,0-.88.974.3.3,0,0,0,0,.44c.408.471.723.911.974,1.257a5.746,5.746,0,0,0-.346.817l-1.665.251a.209.209,0,0,0-.157.126.237.237,0,0,0-.126.22v2.011a.583.583,0,0,0,.063.22.657.657,0,0,0,.189.126l1.634.251a5.3,5.3,0,0,0,.377.88c-.094.157-.283.377-.471.628-.22.283-.377.471-.471.6a.265.265,0,0,0-.063.22.582.582,0,0,0,.063.22A11.968,11.968,0,0,0,38.8,48.069a.3.3,0,0,0,.44,0l1.257-.974a4.913,4.913,0,0,0,.817.346l.251,1.665a.224.224,0,0,0,.094.189.265.265,0,0,0,.22.063h2.011a.285.285,0,0,0,.314-.251c.063-.314.157-.848.251-1.665a3.754,3.754,0,0,0,.817-.346l1.257.974a.418.418,0,0,0,.22.094c.126,0,.408-.22.848-.628a6.651,6.651,0,0,0,.88-.974.3.3,0,0,0,0-.44c-.44-.534-.754-.943-.974-1.257a3.991,3.991,0,0,0,.346-.817l1.665-.251c.063,0,.126-.063.189-.126a.265.265,0,0,0,.063-.22V41.439A.187.187,0,0,0,49.763,41.219Zm-5.216,2.828a2.353,2.353,0,1,1,.66-1.634A2.253,2.253,0,0,1,44.547,44.047Z" transform="translate(-6.688 317.624)"/>
  </g>
</svg>
