<?xml version="1.0" encoding="UTF-8"?>
<svg width="24px" height="24px" viewBox="0 0 24 24" version="1.1" xmlns="http://www.w3.org/2000/svg" xmlns:xlink="http://www.w3.org/1999/xlink">
    <!-- Generator: Sketch 51 (57462) - http://www.bohemiancoding.com/sketch -->
    <title>Users</title>
    <desc>Created with Sketch.</desc>
    <defs>
        <path d="M6.21105078,6.24671289 C7.70886686,4.74889681 9.50978538,4 11.6138604,4 C13.7179353,4 15.5129102,4.74295318 16.9988389,6.22888184 C18.4847675,7.71481049 19.2277207,9.50384175 19.2277207,11.5960293 C19.2277207,13.6882168 18.4847675,15.4772481 16.9988389,16.9631768 C15.5129102,18.4491054 13.7179353,19.1920586 11.6138604,19.1920586 C9.50978538,19.1920586 7.71481049,18.4491054 6.22888184,16.9631768 C4.74295318,15.4772481 4,13.6882168 4,11.5960293 C4,9.50384175 4.73700956,7.72075411 6.21105078,6.24671289 Z" id="path-1"></path>
    </defs>
    <g id="Users" stroke="none" stroke-width="1" fill="none" fill-rule="evenodd">
        <g id="">
            <use fill="#000000" xlink:href="#path-1"></use>
            <use fill="#54595F" xlink:href="#path-1"></use>
        </g>
        <path d="M15.76,14.8161543 C15.7709144,15.2623574 15.6251352,15.6982795 15.348,16.0481543 C15.1184821,16.367657 14.7503798,16.5585799 14.357,16.5621543 L8.728,16.5621543 C8.33462018,16.5585799 7.96651793,16.367657 7.737,16.0481543 C7.46093934,15.6978721 7.3162347,15.2619891 7.328,14.8161543 C7.32693361,14.4630522 7.34562951,14.1101671 7.384,13.7591543 C7.42317179,13.4202525 7.49278631,13.0855673 7.592,12.7591543 C7.67817337,12.4525874 7.80782386,12.1599478 7.977,11.8901543 C8.13473603,11.6491587 8.34673262,11.448464 8.596,11.3041543 C8.86526316,11.1494917 9.17153975,11.0710212 9.482,11.0771543 C10.0263047,11.6265579 10.7706975,11.9308853 11.544,11.9201543 C12.3173025,11.9308853 13.0616953,11.6265579 13.606,11.0771543 C13.9164603,11.0710212 14.2227368,11.1494917 14.492,11.3041543 C14.7412674,11.448464 14.953264,11.6491587 15.111,11.8901543 C15.2796571,12.1580823 15.4092923,12.4486672 15.496,12.7531543 C15.5952137,13.0795673 15.6648282,13.4142525 15.704,13.7531543 C15.7425947,14.1061564 15.7612909,14.461051 15.76,14.8161543 Z M13.328,7.1901543 C13.8131871,7.65597281 14.0827214,8.30263778 14.072,8.9751543 C14.0813481,9.64799151 13.8120767,10.2947497 13.328,10.7621543 C12.8596033,11.2456385 12.2120812,11.5138408 11.539,11.5031543 C10.8659188,11.5138408 10.2183967,11.2456385 9.75,10.7621543 C9.2665158,10.2937576 8.99831351,9.64623546 9.009,8.9731543 C8.99831351,8.30007314 9.2665158,7.65255101 9.75,7.1841543 C10.2183967,6.7006701 10.8659188,6.43246781 11.539,6.4431543 C12.2133507,6.43209502 12.8617483,6.70283457 13.328,7.1901543 Z" id="Path_34" fill="#FFFFFF" fill-rule="nonzero"></path>
    </g>
</svg>