<svg xmlns="http://www.w3.org/2000/svg" width="24" height="24" viewBox="0 0 24 24">
  <g fill="none" fill-rule="evenodd">
    <rect width="24" height="24" fill="#FFF6F8" rx="2"/>
    <path stroke="#C12335" stroke-linecap="round" stroke-linejoin="round" stroke-width="1.25" d="M17.8549221,7.63037073 C17.4759087,7.36029953 16.4204832,7 11.9959811,7 C7.25491322,7 6.5519145,7.41308618 6.32623769,7.54812178 C5.12489511,8.26442426 5.01112927,11.4365333 5,12.0797938 C5.01483902,12.9292904 5.15333657,15.7552173 6.3256194,16.4549472 C6.55067791,16.589369 7.25058517,17 11.9959811,17 C16.4235746,17 17.4783818,16.6421557 17.8549221,16.3720845 C18.8788146,15.6410508 18.9969085,13.1226369 19,12.0687454 C18.9975268,11.2210901 18.9072561,8.38288731 17.8549221,7.63037073 Z M14.0041956,12.2590228 L11.5712141,14.0138718 C11.3807799,14.1519764 11.106258,14.0200098 11.106258,13.7787871 L11.106258,10.2697029 C11.106258,10.0340044 11.3758336,9.89405843 11.5712141,10.0340044 L14.0041956,11.7882396 C14.1649516,11.9048613 14.1649516,12.1436288 14.0041956,12.2590228 Z"/>
  </g>
</svg>
